<?xml version="1.0" encoding="UTF-8" standalone="no"?>
<!DOCTYPE svg PUBLIC "-//W3C//DTD SVG 1.1//EN" "http://www.w3.org/Graphics/SVG/1.1/DTD/svg11.dtd">
<svg xmlns="http://www.w3.org/2000/svg" version="1.1" viewBox="0.00 0.00 545.00 551.00">
<path fill="#23547e" d="
  M 106.13 106.89
  A 0.57 0.56 -88.4 0 0 105.56 107.44
  Q 105.25 120.62 105.56 133.75
  C 105.60 135.11 105.25 136.55 105.26 137.76
  Q 105.64 185.05 105.50 198.50
  C 105.26 220.91 105.67 243.90 105.27 263.25
  C 105.21 266.22 104.27 268.56 102.51 271.24
  Q 90.17 290.05 78.53 309.29
  C 76.97 311.87 74.79 314.62 73.35 317.10
  C 68.89 324.76 63.44 332.52 59.17 339.51
  Q 51.10 352.69 41.78 366.19
  Q 40.68 367.78 40.70 365.84
  Q 40.81 356.69 40.73 346.52
  Q 40.72 346.27 40.82 346.01
  Q 40.96 345.64 40.96 345.50
  Q 40.95 210.12 40.96 74.75
  C 40.96 74.05 40.41 73.28 40.40 72.39
  C 40.29 59.58 45.80 48.88 58.11 44.82
  Q 62.83 43.26 74.57 43.26
  C 106.71 43.25 138.85 43.16 171.00 43.51
  C 196.99 43.80 222.89 43.10 248.92 43.09
  A 0.66 0.66 0.0 0 1 249.54 43.99
  Q 248.80 45.89 247.48 47.71
  C 242.57 54.49 238.22 62.13 233.82 68.68
  Q 230.67 73.37 227.64 78.14
  C 223.32 84.95 217.67 92.97 213.15 100.67
  C 211.71 103.13 209.72 106.72 206.57 106.75
  C 173.07 107.13 139.56 106.99 106.13 106.89
  Z"
/>
<path fill="#23547e" d="
  M 312.60 106.74
  C 309.83 106.59 302.69 106.13 300.82 108.57
  Q 297.91 112.39 294.71 116.00
  C 292.86 118.09 292.94 120.52 291.76 122.28
  Q 288.47 127.16 285.27 132.11
  C 283.72 134.49 279.78 139.92 277.39 144.01
  Q 275.88 146.60 274.32 148.82
  C 271.21 153.27 268.42 158.35 265.67 162.54
  C 259.20 172.37 254.48 181.85 246.63 192.04
  C 244.58 194.71 243.34 197.95 241.82 200.26
  C 234.50 211.41 228.74 220.82 221.59 231.59
  C 217.33 238.00 213.43 244.77 209.27 251.02
  C 203.13 260.23 197.03 270.50 191.58 279.11
  C 187.17 286.06 182.50 294.02 178.67 300.19
  C 167.38 318.35 156.38 336.70 144.99 354.79
  Q 124.52 387.27 110.82 409.58
  Q 109.90 411.08 108.84 411.99
  Q 108.38 412.39 107.77 412.39
  L 41.31 412.95
  A 0.94 0.93 -1.2 0 1 40.36 412.05
  C 40.14 406.40 39.61 398.20 42.37 393.31
  C 47.34 384.49 54.47 374.44 58.59 367.89
  Q 62.77 361.27 66.94 354.65
  C 70.12 349.60 74.97 342.69 78.64 336.46
  C 82.28 330.29 85.69 325.17 89.26 319.54
  Q 125.90 261.66 163.26 204.25
  C 167.05 198.42 172.91 188.04 179.17 178.81
  C 181.11 175.94 182.85 172.61 184.57 170.00
  Q 189.93 161.90 195.33 153.82
  C 197.15 151.10 198.89 147.33 201.16 144.21
  Q 206.23 137.26 210.74 129.94
  Q 215.13 122.80 219.49 116.56
  C 224.53 109.36 229.59 100.88 233.85 94.48
  Q 239.73 85.63 245.49 76.70
  C 247.12 74.17 249.39 71.93 250.79 69.25
  C 252.80 65.43 254.66 62.02 257.28 58.36
  Q 262.13 51.59 266.54 44.54
  Q 267.56 42.91 270.00 42.87
  C 275.27 42.78 280.89 43.71 285.67 43.71
  Q 374.90 43.70 464.13 43.71
  Q 464.63 43.71 465.06 43.49
  Q 465.39 43.33 465.74 43.30
  C 483.03 41.78 495.71 52.22 496.53 69.99
  C 497.19 84.17 496.38 93.59 496.87 105.57
  Q 496.93 106.90 495.60 106.91
  Q 480.59 107.09 464.75 107.14
  Q 442.57 107.21 412.08 106.91
  C 409.69 106.89 407.36 106.51 405.31 106.56
  Q 390.51 106.95 375.72 106.42
  Q 375.63 106.42 370.78 105.83
  C 367.27 105.40 364.41 106.81 361.19 106.67
  C 355.46 106.42 349.94 106.72 344.11 106.08
  Q 340.45 105.67 337.75 106.01
  Q 331.27 106.83 323.25 106.56
  C 319.86 106.44 316.34 106.94 312.60 106.74
  Z"
/>
<path fill="#23547e" d="
  M 373.16 304.06
  A 1.48 1.48 0.0 0 0 370.86 304.33
  C 366.21 311.77 361.38 318.87 356.99 326.30
  Q 355.01 329.63 352.89 332.87
  Q 345.62 344.01 338.49 355.25
  Q 337.38 356.99 333.48 363.74
  C 331.36 367.42 330.24 366.87 325.90 366.94
  C 272.62 367.74 219.27 367.23 165.98 367.25
  C 163.31 367.25 158.47 367.68 154.70 367.16
  A 0.75 0.69 -69.3 0 1 154.25 366.04
  L 191.60 305.81
  A 3.89 3.88 15.9 0 1 194.90 303.98
  Q 228.63 303.94 262.12 303.98
  Q 262.22 303.98 266.36 304.27
  C 268.34 304.41 270.45 303.97 272.22 303.98
  Q 282.78 304.01 293.34 304.01
  C 295.65 304.01 299.34 304.05 302.28 303.98
  C 311.94 303.77 321.60 304.11 331.24 303.79
  C 333.69 303.71 336.36 304.05 338.59 304.00
  Q 352.77 303.71 366.95 303.72
  C 368.26 303.73 369.38 303.07 370.93 303.44
  Q 371.44 303.56 371.72 303.11
  C 372.24 302.28 372.22 301.56 371.59 300.76
  Q 367.71 295.86 366.63 293.60
  Q 364.24 288.59 363.14 286.95
  Q 360.06 282.38 357.47 277.54
  C 356.74 276.17 355.66 275.49 354.89 274.23
  Q 351.85 269.22 348.85 264.17
  C 347.81 262.42 347.34 260.45 345.30 258.96
  C 344.43 258.32 343.20 254.54 342.21 253.16
  Q 337.70 246.93 334.52 239.92
  Q 333.32 237.26 331.41 234.92
  C 328.67 231.55 326.65 227.92 324.08 224.46
  C 323.12 223.16 322.69 221.69 321.67 220.42
  C 320.04 218.39 318.54 215.44 317.57 213.87
  Q 313.17 206.79 308.82 199.68
  Q 308.63 199.37 308.17 199.02
  Q 307.77 198.72 307.65 198.24
  C 306.89 195.25 304.62 193.43 303.38 191.34
  C 301.77 188.62 300.21 186.47 298.50 183.32
  C 297.54 181.57 296.21 180.16 295.28 178.49
  Q 293.91 176.03 292.26 173.76
  C 291.46 172.65 291.04 170.66 290.03 169.21
  Q 286.47 164.14 284.63 159.55
  C 283.68 157.17 287.58 152.91 289.03 151.07
  Q 291.36 148.13 292.80 145.84
  Q 300.57 133.51 301.94 129.71
  Q 303.25 126.08 305.34 123.27
  A 1.25 1.23 -70.4 0 1 306.37 122.77
  Q 316.51 123.01 326.31 122.79
  C 328.59 122.73 332.13 123.20 335.03 122.57
  A 1.54 1.53 65.1 0 1 336.60 123.15
  Q 338.06 125.08 339.25 127.19
  C 340.15 128.79 341.91 130.94 342.81 132.96
  Q 343.48 134.46 344.12 135.34
  Q 349.72 142.97 351.21 146.02
  C 353.35 150.38 355.81 154.02 358.01 158.06
  C 359.04 159.95 360.72 161.92 361.71 164.15
  Q 362.09 165.01 363.02 166.14
  C 363.72 166.99 364.12 168.16 364.62 168.97
  C 367.42 173.48 370.05 177.58 372.78 182.55
  C 376.06 188.52 379.93 193.76 383.10 199.37
  C 386.81 205.93 391.41 211.93 394.61 218.92
  C 395.26 220.33 396.77 221.60 397.14 222.63
  Q 397.78 224.46 400.02 227.24
  Q 401.70 229.33 404.93 235.78
  Q 405.79 237.49 408.77 242.10
  C 410.50 244.79 412.50 249.05 415.11 252.19
  C 416.43 253.79 416.63 255.54 417.76 257.13
  C 420.79 261.43 423.25 266.01 426.30 270.27
  C 427.47 271.90 428.16 273.97 429.12 275.42
  Q 430.59 277.61 432.30 279.60
  A 0.83 0.82 -23.7 0 0 433.04 279.88
  Q 433.68 279.78 433.71 279.00
  Q 433.92 272.25 434.09 265.50
  Q 434.11 264.67 433.94 263.86
  Q 433.84 263.39 433.84 262.69
  L 433.82 123.19
  Q 433.82 122.69 434.31 122.70
  L 495.44 123.06
  A 1.22 1.22 0.0 0 1 496.65 124.28
  Q 496.71 304.83 496.42 485.00
  C 496.41 490.15 495.83 495.37 493.24 499.98
  C 487.25 510.60 478.61 514.35 466.56 514.45
  C 438.78 514.68 411.02 514.20 383.25 514.23
  C 329.09 514.31 274.91 513.95 220.75 514.32
  C 171.00 514.66 121.22 514.59 71.46 514.57
  C 66.85 514.56 61.60 513.92 57.74 512.80
  C 50.50 510.70 43.94 502.35 42.25 495.75
  Q 40.51 488.98 40.66 481.24
  C 40.68 480.21 40.99 479.45 40.99 478.58
  Q 40.93 472.66 40.98 466.75
  C 40.99 466.08 40.57 465.46 40.54 464.74
  Q 40.20 457.88 40.69 451.28
  A 1.33 1.32 -87.4 0 1 42.02 450.06
  Q 84.68 450.46 127.12 450.01
  Q 142.19 449.84 157.18 450.08
  A 256.51 10.79 -2.0 0 0 188.65 450.31
  C 212.78 450.32 250.59 449.58 281.50 450.22
  C 300.76 450.62 333.17 449.94 364.50 450.24
  Q 396.00 450.54 427.50 450.29
  C 430.04 450.27 434.37 450.77 434.42 447.50
  Q 434.71 428.40 434.19 409.32
  C 434.05 404.12 433.33 400.61 430.64 396.61
  Q 427.91 392.55 425.40 388.35
  C 409.49 361.72 393.27 335.23 376.92 308.87
  Q 375.13 305.98 373.16 304.06
  Z"
/>
</svg>
